<svg xmlns="http://www.w3.org/2000/svg" version="1.1" xmlns:xlink="http://www.w3.org/1999/xlink" xmlns:svgjs="http://svgjs.dev/svgjs" width="1000" height="1069" viewBox="0 0 1000 1069"><g transform="matrix(1,0,0,1,0.9389201128118998,0.4335927273538118)"><svg viewBox="0 0 231 247" data-background-color="#ffffff" preserveAspectRatio="xMidYMid meet" height="1069" width="1000" xmlns="http://www.w3.org/2000/svg" xmlns:xlink="http://www.w3.org/1999/xlink"><g id="tight-bounds" transform="matrix(1,0,0,1,-0.21673347598655823,-0.09997365579206985)"><svg viewBox="0 0 231.43358258783206 247.2" height="247.2" width="231.43358258783206"><g><svg viewBox="0 0 231.43358258783206 247.2" height="247.2" width="231.43358258783206"><g><svg viewBox="0 0 231.43358258783206 247.2" height="247.2" width="231.43358258783206"><g><svg viewBox="0 0 231.43358258783206 247.2" height="247.2" width="231.43358258783206"><g><svg viewBox="0 0 231.43358258783206 247.2" height="247.2" width="231.43358258783206"><path d="M230.892 53.02C229.804 27.36 226.703 20.227 226.703 20.227 217.183-6.202 205.302-0.506 194.628 3.292 175.784 3.446 157.015 9.091 138.214 12.119 98.752 12.581 58.952 4.986 19.686 23.717 15.997 29.464-3.827 24.846 0.656 56.304 1.831 69.39 6.118 83.913 5.987 95.922 6.575 98.026 7.391 93.202 7.739 96.23 8.958 104.39 10.949 100.541 12.581 105.365 10.307 118.246 11.939 128.971 13.495 140.21 10.753 143.135 7.239 141.749 5.661 151.449 5.498 158.479 4.616 157.145 3.648 156.837 2.941 156.632 1.516 157.402 1.755 159.608 2.571 167.152-0.932 171.514 1.265 178.904-0.247 186.91 2.31 193.838 1.962 202.511 1.918 204.255 2.158 205.744 2.538 206.154 4.225 208.361 1.766 212.672 2.027 217.342 19.326 249.262 38.095 227.195 55.819 241.872 60.421 231.608 56.961 245.516 58.8 243.36 60.236 240.846 61.28 251.263 62.902 245.362 63.152 243.668 62.771 239.665 63.663 240.435 64.131 240.846 64.545 240.743 64.61 238.382 64.708 234.841 63.848 237.048 63.62 235.201 66.09 225.861 65.48 248.081 67.798 247.158 67.689 244.438 67.014 240.538 68.396 241.051 69.767 237.151 69.811 233.918 71.029 242.693 71.073 244.592 71.29 245.926 71.638 246.85 75.446 237.305 79.233 250.237 83.226 245.926 85.674 241.205 88.024 248.492 90.505 246.696 91.375 245.259 92.256 242.693 93.094 247.004 103.354 247.928 114.289 244.079 124.016 247.158 150.008 241.41 177.786 249.518 205.193 241.923 211.656 238.998 218.369 234.841 224.668 231.506 224.668 231.506 229.771 222.371 229.771 181.316S230.859 145.393 231.022 112.703C231.186 80.013 231.947 78.679 230.859 53.02Z" opacity="1" fill="#ff0000" data-fill-palette-color="tertiary"></path><g transform="matrix(1,0,0,1,55.76832000000001,26.230666666666668)"><svg width="119.89694258783204" viewBox="1.51 -36.72 23.389999999999997 37.989999999999995" height="194.73866666666666" data-palette-color="#ffffff"><path d="M24.9-28.56L24.9-27.93Q24.9-23.88 24.71-19.8 24.51-15.72 24.22-11.67L24.22-11.67Q24.17-10.94 24.12-9.69 24.07-8.45 23.93-7.01 23.78-5.57 23.54-4.1 23.29-2.64 22.78-1.44 22.27-0.24 21.46 0.51 20.65 1.27 19.48 1.27L19.48 1.27Q18.46 1.27 17.65 0.83 16.85 0.39 16.31-0.32 15.77-1.03 15.48-1.93 15.19-2.83 15.19-3.81L15.19-3.81Q15.19-5.42 15.28-7.06 15.38-8.69 15.58-10.3L15.58-10.3 10.74-9.81Q10.6-8.54 10.42-6.76 10.25-4.98 9.74-3.34 9.23-1.71 8.2-0.54 7.18 0.63 5.37 0.63L5.37 0.63Q4.25 0.63 3.52 0.12 2.78-0.39 2.34-1.2 1.9-2 1.71-2.98 1.51-3.96 1.51-4.83L1.51-4.83Q1.51-7.76 1.76-10.67 2-13.57 2.1-16.5L2.1-16.5Q2.2-19.58 2.17-22.68 2.15-25.78 2.25-28.91L2.25-28.91Q2.29-29.93 2.32-31.3 2.34-32.67 2.66-33.86 2.98-35.06 3.74-35.89 4.49-36.72 6.01-36.72L6.01-36.72Q8.11-36.72 9.18-35.62 10.25-34.52 10.69-32.89 11.13-31.25 11.13-29.42 11.13-27.59 11.13-26.12L11.13-26.12Q11.13-24.17 11.04-22.29 10.94-20.41 10.84-18.51L10.84-18.51 16.06-19.29Q16.11-21.68 16.16-24.02 16.21-26.37 16.36-28.71L16.36-28.71Q16.41-29.83 16.46-31.1 16.5-32.37 16.85-33.45 17.19-34.52 17.99-35.23 18.8-35.94 20.41-35.94L20.41-35.94Q21.78-35.94 22.63-35.16 23.49-34.38 24-33.25 24.51-32.13 24.71-30.86 24.9-29.59 24.9-28.56L24.9-28.56Z" opacity="1" transform="matrix(1,0,0,1,0,0)" fill="#ffffff" class="undefined-text-0" data-fill-palette-color="quaternary" id="text-0"></path></svg></g></svg></g></svg></g></svg></g><g></g></svg></g><defs></defs></svg><rect width="231.43358258783206" height="247.2" fill="none" stroke="none" visibility="hidden"></rect></g></svg></g></svg>