<svg xmlns="http://www.w3.org/2000/svg" version="1.1" xmlns:xlink="http://www.w3.org/1999/xlink" xmlns:svgjs="http://svgjs.dev/svgjs" width="128" height="128" viewBox="0 0 128 128"><g transform="matrix(0.8046875,0,0,0.8046875,12.333870967741937,22.228778792812307)"><svg viewBox="0 0 155 126" data-background-color="#ffffff" preserveAspectRatio="xMidYMid meet" height="104" width="128" xmlns="http://www.w3.org/2000/svg" xmlns:xlink="http://www.w3.org/1999/xlink"><g id="tight-bounds" transform="matrix(1,0,0,1,0.25,-0.10919943712443114)"><svg viewBox="0 0 154.5 126.21839887424886" height="126.21839887424886" width="154.5"><g><svg viewBox="0 0 154.5 126.21839887424886" height="126.21839887424886" width="154.5"><g><svg viewBox="0 0 154.5 126.21839887424886" height="126.21839887424886" width="154.5"><g><svg viewBox="0 0 154.5 126.21839887424886" height="126.21839887424886" width="154.5"><g><svg viewBox="0 0 154.5 126.21839887424886" height="126.21839887424886" width="154.5"><g transform="matrix(1,0,0,1,0,0)"><svg width="154.5" viewBox="2.9 -28.93571428571428 35.6 29.08571428571428" height="126.21839887424886" data-palette-color="#ea3c12"><path d="M10.4 0.15Q8.3 0.15 6.88 0.05 5.45-0.05 4.2-0.4L4.2-0.4Q4-0.4 3.9-0.63 3.8-0.85 3.75-0.95L3.75-0.95Q3.7-1.2 3.7-1.55L3.7-1.55Q3.4-6.6 3.15-9.4L3.15-9.4Q2.9-12.7 2.9-17.65L2.9-17.65 2.9-18.9 2.95-20.8 3.05-23.05 3.1-24.3Q3.15-24.65 3.15-25.4L3.15-25.4 3.15-27.3Q3.15-28.25 3.2-28.55L3.2-28.55Q3.2-28.7 3.4-28.7L3.4-28.7Q3.85-28.7 4.2-28.9L4.2-28.9Q4.35-28.9 4.67-28.93 5-28.95 5.25-28.9L5.25-28.9 6.9-28.9 9.55-28.9 11-28.9 13.8-28.9Q14.7-28.9 15.15-28.85L15.15-28.85 16.65-28.8Q17.2-28.8 17.48-28.73 17.75-28.65 17.9-28.4L17.9-28.4Q18.05-28.25 18.1-27.8 18.15-27.35 18.15-26.8L18.15-26.8 18.15-26.4 18.15-25.7Q18.15-25.2 18.2-25L18.2-25 18.2-24.5 18.2-24.15Q18.25-23.95 18.25-23.65L18.25-23.65 18.2-22.15Q18.15-21.65 18.15-20.7L18.15-20.7Q18.15-20.15 18.25-19.95L18.25-19.95Q18.4-19.7 18.7-19.7L18.7-19.7Q18.8-19.7 19.2-19.8L19.2-19.8Q19.35-19.8 19.6-19.85 19.85-19.9 20.15-19.9L20.15-19.9 20.65-19.9Q20.9-19.8 21.55-19.8L21.55-19.8Q21.8-19.8 22.03-19.85 22.25-19.9 22.45-19.9L22.45-19.9Q22.9-19.9 22.9-20L22.9-20 22.9-22.05 22.9-22.8Q22.9-23.55 22.95-24L22.95-24 22.95-25.4Q23-25.9 23-26.8L23-26.8Q23-27.65 23.05-27.95L23.05-27.95 23.05-28.7 23.2-28.7 23.45-28.7Q23.75-28.7 23.75-28.9L23.75-28.9 26.15-28.9Q27.65-28.9 28.4-28.8L28.4-28.8Q29.7-28.7 30.5-28.7L30.5-28.7 33.65-28.8Q34.4-28.9 35.5-28.9L35.5-28.9 36.8-28.9Q37.8-28.9 38.15-28.7 38.5-28.5 38.5-27.7L38.5-27.7 38.5-23.75Q38.5-22.75 38.45-22.15L38.45-22.15 38.4-20.95Q38.4-20.15 38.3-18.55L38.3-18.55 38.25-17.7 38.3-16.9 37.8-1.05Q37.8-0.9 37.5-0.4L37.5-0.4Q37.2 0 36.9 0L36.9 0 33.4 0Q31.45 0 29.55-0.15L29.55-0.15Q28.3-0.2 25.8-0.2L25.8-0.2 24.95-0.2Q24.25-0.2 24-0.7L24-0.7Q23.8-1.35 23.75-2.4L23.75-2.4 23.25-10.65 22.75-10.65Q21.55-10.65 21-10.7L21-10.7Q20.5-10.8 20.5-10.8L20.5-10.8 18.45-10.8Q18.25-10.8 18.2-10.65 18.15-10.5 18.15-10.33 18.15-10.15 18.15-10.05L18.15-10.05 18.15-1.75 18.15-0.8Q18.15-0.65 18.1-0.53 18.05-0.4 18.05-0.3L18.05-0.3Q18-0.15 17.8-0.15L17.8-0.15Q17.75-0.15 17.65-0.1 17.55-0.05 17.4 0L17.4 0Q15.55 0 13.9 0.15L13.9 0.15 10.4 0.15Z" opacity="1" transform="matrix(1,0,0,1,0,0)" fill="#ea3c12" class="undefined-text-0" data-fill-palette-color="primary" id="text-0"></path></svg></g></svg></g></svg></g></svg></g></svg></g><defs></defs></svg><rect width="154.5" height="126.21839887424886" fill="none" stroke="none" visibility="hidden"></rect></g></svg></g></svg>